name D:\school\WTK\thesis\model\3dpredictsim\Results\debug_batch\Pog_s1_tmt_aCst_d05_k1000_ig24_act_TTC.mot
datacolumns 128
datarows 4
range 0.00000000 0.03754500
endheader
time	pelvis_tilt	pelvis_list	pelvis_rotation	pelvis_tx	pelvis_ty	pelvis_tz	hip_flexion_l	hip_adduction_l	hip_rotation_l	hip_flexion_r	hip_adduction_r	hip_rotation_r	knee_angle_l	knee_angle_r	ankle_angle_l	ankle_angle_r	subtalar_angle_l	subtalar_angle_r	tmt_angle_l	tmt_angle_r	mtp_angle_l	mtp_angle_r	lumbar_extension	lumbar_bending	lumbar_rotation	arm_flex_l	arm_add_l	arm_rot_l	arm_flex_r	arm_add_r	arm_rot_r	elbow_flex_l	elbow_flex_r	pro_sup_l	pro_sup_r	glut_med1_l/activation	glut_med2_l/activation	glut_med3_l/activation	glut_min1_l/activation	glut_min2_l/activation	glut_min3_l/activation	semimem_l/activation	semiten_l/activation	bifemlh_l/activation	bifemsh_l/activation	sar_l/activation	add_long_l/activation	add_brev_l/activation	add_mag1_l/activation	add_mag2_l/activation	add_mag3_l/activation	tfl_l/activation	pect_l/activation	grac_l/activation	glut_max1_l/activation	glut_max2_l/activation	glut_max3_l/activation	iliacus_l/activation	psoas_l/activation	quad_fem_l/activation	gem_l/activation	peri_l/activation	rect_fem_l/activation	vas_med_l/activation	vas_int_l/activation	vas_lat_l/activation	med_gas_l/activation	lat_gas_l/activation	soleus_l/activation	tib_post_l/activation	flex_dig_l/activation	flex_hal_l/activation	tib_ant_l/activation	per_brev_l/activation	per_long_l/activation	per_tert_l/activation	ext_dig_l/activation	ext_hal_l/activation	ercspn_l/activation	intobl_l/activation	extobl_l/activation	glut_med1_r/activation	glut_med2_r/activation	glut_med3_r/activation	glut_min1_r/activation	glut_min2_r/activation	glut_min3_r/activation	semimem_r/activation	semiten_r/activation	bifemlh_r/activation	bifemsh_r/activation	sar_r/activation	add_long_r/activation	add_brev_r/activation	add_mag1_r/activation	add_mag2_r/activation	add_mag3_r/activation	tfl_r/activation	pect_r/activation	grac_r/activation	glut_max1_r/activation	glut_max2_r/activation	glut_max3_r/activation	iliacus_r/activation	psoas_r/activation	quad_fem_r/activation	gem_r/activation	peri_r/activation	rect_fem_r/activation	vas_med_r/activation	vas_int_r/activation	vas_lat_r/activation	med_gas_r/activation	lat_gas_r/activation	soleus_r/activation	tib_post_r/activation	flex_dig_r/activation	flex_hal_r/activation	tib_ant_r/activation	per_brev_r/activation	per_long_r/activation	per_tert_r/activation	ext_dig_r/activation	ext_hal_r/activation	ercspn_r/activation	intobl_r/activation	extobl_r/activation	
          0.00000000	         -2.93017519	         -1.48020346	          8.89667903	          0.00000000	          0.85438831	         -0.00361190	        -16.66655504	         -2.99507390	          7.96523469	         33.49907537	          0.49638749	         -0.71439484	        -15.21899007	        -15.19702783	         -7.14588815	          9.34961305	         16.41250225	         -0.40513322	          1.37401719	          0.02001282	         28.47403679	         -0.08720540	         -0.39175220	         -1.00041835	         -3.29211662	          3.52336206	        -13.52930141	         18.12207512	        -12.15182108	        -13.60068619	         10.31408770	         46.82276477	         16.89213065	         86.51662706	         86.51662706	          0.16229575	          0.08826689	          0.07856539	          0.19488339	          0.13522857	          0.08826611	          0.05000391	          0.05000037	          0.05000036	          0.05000117	          0.09271899	          0.05000085	          0.05000036	          0.05000041	          0.05000076	          0.05000066	          0.17762962	          0.05000287	          0.05000111	          0.05000859	          0.05000407	          0.05000134	          0.37763222	          0.59661977	          0.05000057	          0.05000238	          0.07254737	          0.20657705	          0.09813757	          0.06282361	          0.07991118	          0.16518165	          0.24412026	          0.06042900	          0.16452560	          0.20801029	          0.21748481	          0.05000007	          0.39523538	          0.34629746	          0.05000018	          0.23679767	          0.05000031	          0.05000002	          0.05000005	          0.05000012	          0.05000074	          0.05000040	          0.05000164	          0.05000045	          0.05000054	          0.05000150	          0.15574844	          0.06042944	          0.11508262	          0.05928360	          0.05001323	          0.07261938	          0.09770631	          0.19548235	          0.15563739	          0.11254332	          0.05000247	          0.06042556	          0.06043487	          0.05000088	          0.05000359	          0.09256844	          0.06043034	          0.06418536	          0.17854349	          0.05000465	          0.05000395	          0.05000043	          0.08717230	          0.09984845	          0.08287456	          0.06042919	          0.06042922	          0.06042916	          0.05000060	          0.05000152	          0.05532487	          0.49933316	          0.32350154	          0.20042342	          0.08267708	          0.56803444	          0.30166235	          0.05046517	          0.14010988	          0.10999540	
          0.01251500	         -2.92711407	         -1.40204791	          9.05597615	          0.02039210	          0.85317587	         -0.00320689	        -16.83260415	         -3.17893764	          7.69056412	         32.75524566	          0.77413907	         -0.51317569	        -16.61284966	        -15.19130956	        -10.03692929	          8.71273647	         16.71662771	         -0.76140756	          1.05288171	          0.03707883	         30.12602513	         -0.08387268	         -0.12434848	         -0.85556905	         -3.40009783	          2.98823328	        -13.60387049	         18.37575060	        -13.68824869	        -13.57823059	         10.17393369	         48.12348408	         16.96481589	         86.51662706	         86.51662706	          0.13428610	          0.07303351	          0.06500672	          0.16124966	          0.11189030	          0.07303299	          0.05000371	          0.05000033	          0.05000046	          0.05000044	          0.07671752	          0.13638405	          0.14868411	          0.11747751	          0.05001959	          0.05000297	          0.14697353	          0.08069405	          0.05000616	          0.05000546	          0.05000368	          0.05000400	          0.31245866	          0.49365241	          0.07303305	          0.07302309	          0.06042976	          0.17092497	          0.08608701	          0.12892588	          0.09437940	          0.13667378	          0.20198879	          0.05000007	          0.13613097	          0.17211091	          0.17995025	          0.24285954	          0.40758757	          0.32232282	          0.48210058	          0.41171292	          0.20974945	          0.05609190	          0.07303331	          0.05893307	          0.07017022	          0.07679017	          0.05000081	          0.06042916	          0.06042645	          0.05000695	          0.12886870	          0.05000045	          0.09522118	          0.05000041	          0.05000262	          0.06008661	          0.08084386	          0.25663547	          0.19013353	          0.12531679	          0.05000107	          0.05000252	          0.05000509	          0.06042916	          0.09725262	          0.10471005	          0.05000125	          0.05310824	          0.41678911	          0.06043157	          0.07867395	          0.07303356	          0.22905637	          0.23089894	          0.20260312	          0.05000003	          0.05000006	          0.05000000	          0.05000023	          0.07303238	          0.05000166	          0.68085357	          0.36005200	          0.22978954	          0.49991453	          0.65074228	          0.45251188	          0.05000002	          0.11592903	          0.09101186	
          0.02503000	         -2.91763236	         -1.32578813	          9.17444151	          0.04096341	          0.85162992	         -0.00281902	        -16.79081734	         -3.32153210	          7.40621677	         31.88604643	          1.03311146	         -0.24766449	        -18.39558562	        -15.80273622	        -12.72226898	          7.96902913	         16.96640407	         -1.13411230	          0.74403904	         -0.03411488	         30.86337574	         -0.15588692	          0.14617469	         -0.69274308	         -3.48913253	          2.38829151	        -13.68778848	         18.55554634	        -15.18972720	        -13.56644130	         10.11624013	         49.39915025	         16.98912200	         86.51662706	         86.51662706	          0.11111075	          0.06042919	          0.05378774	          0.13342066	          0.09257986	          0.06042876	          0.07078968	          0.06042933	          0.06042980	          0.05000066	          0.06347768	          0.16183815	          0.26849091	          0.14003047	          0.07437170	          0.09890035	          0.12160820	          0.06677907	          0.06042939	          0.05007653	          0.06042641	          0.06042987	          0.25853307	          0.42739026	          0.06042935	          0.06042164	          0.05000059	          0.14142590	          0.07122980	          0.10667530	          0.07809101	          0.11308595	          0.16712857	          0.05000002	          0.11263682	          0.14240722	          0.14889359	          0.43096322	          0.46934718	          0.33093505	          0.71766331	          0.53478709	          0.36344625	          0.08126636	          0.06042890	          0.05000018	          0.25358763	          0.27624394	          0.41904100	          0.05000100	          0.05000047	          0.35607775	          0.11724364	          0.07502597	          0.10340749	          0.05000029	          0.05000065	          0.07303455	          0.18832145	          0.25632587	          0.22666590	          0.16222945	          0.05000049	          0.06045311	          0.12893822	          0.05000033	          0.17557052	          0.16972180	          0.05285749	          0.05000083	          0.34485777	          0.05000245	          0.29731204	          0.06042909	          0.18952485	          0.19104948	          0.16763703	          0.06042912	          0.06042913	          0.06042915	          0.06042900	          0.06042864	          0.06042911	          0.57092533	          0.35675425	          0.19013156	          0.44241029	          0.66463550	          0.44079045	          0.05764660	          0.09592151	          0.07530459	
          0.03754500	         -2.90472403	         -1.25656462	          9.24761478	          0.06133217	          0.84984043	         -0.00242871	        -16.49083772	         -3.42673845	          7.12888203	         30.95105223	          1.28367908	          0.04536843	        -20.64755943	        -16.53790294	        -14.80752583	          7.41620158	         17.15227936	         -1.51299265	          0.53071373	         -0.01710061	         29.77197926	         -0.16029555	          0.38864518	         -0.50811535	         -3.55755299	          1.78654213	        -13.76851634	         18.66436311	        -16.56900115	        -13.56903184	         10.20298490	         50.61166056	         16.90673427	         86.51662706	         86.51662706	          0.18293871	          0.05000036	          0.05000010	          0.18009296	          0.07660218	          0.05000101	          0.10890384	          0.05000044	          0.05000081	          0.05000034	          0.05253506	          0.13390782	          0.22215388	          0.11586368	          0.06153694	          0.08183199	          0.10062063	          0.05816257	          0.05000111	          0.05000187	          0.05000134	          0.05000122	          0.21391426	          0.41428288	          0.05000028	          0.05000083	          0.05000049	          0.11701793	          0.08826616	          0.08826645	          0.07379245	          0.09356902	          0.13828472	          0.05000010	          0.09319742	          0.11782999	          0.12319686	          0.36279473	          0.38834524	          0.27382156	          0.62616171	          0.70691225	          0.30072113	          0.12435266	          0.05000001	          0.05000008	          0.32434738	          0.42598789	          0.51938762	          0.14933921	          0.23397529	          0.29462549	          0.09700919	          0.10093546	          0.08556111	          0.07303238	          0.05000122	          0.06042995	          0.15582005	          0.21208846	          0.22866798	          0.18082789	          0.05000034	          0.05002028	          0.10668582	          0.28680596	          0.24554293	          0.20734188	          0.05000010	          0.05000011	          0.28534105	          0.07309737	          0.24600137	          0.05000005	          0.15681712	          0.24540031	          0.19313581	          0.05000002	          0.05000005	          0.05000000	          0.05000001	          0.05000035	          0.05000024	          0.73944553	          0.39381258	          0.19482278	          0.69602585	          0.76647016	          0.56061767	          0.07032568	          0.07936700	          0.06230816	
